<mxfile host="app.diagrams.net" agent="Mozilla/5.0 (X11; Linux x86_64) AppleWebKit/537.36 (KHTML, like Gecko) Chrome/141.0.0.0 Safari/537.36" version="28.2.5">
  <diagram name="PÃ¡gina-1" id="2tn0s9U_ga8u8Qfxprjt">
    <mxGraphModel dx="1426" dy="679" grid="1" gridSize="10" guides="1" tooltips="1" connect="1" arrows="1" fold="1" page="1" pageScale="1" pageWidth="827" pageHeight="1169" math="0" shadow="0">
      <root>
        <mxCell id="0" />
        <mxCell id="1" parent="0" />
        <mxCell id="xd_y7Sb4m2H2BHd6RDBn-1" value="VISTA" style="rounded=0;whiteSpace=wrap;html=1;" vertex="1" parent="1">
          <mxGeometry x="120" y="20" width="120" height="60" as="geometry" />
        </mxCell>
        <mxCell id="xd_y7Sb4m2H2BHd6RDBn-2" value="CONTROLADOR" style="rounded=0;whiteSpace=wrap;html=1;" vertex="1" parent="1">
          <mxGeometry x="320" y="20" width="120" height="60" as="geometry" />
        </mxCell>
        <mxCell id="xd_y7Sb4m2H2BHd6RDBn-3" value="MODELO" style="rounded=0;whiteSpace=wrap;html=1;" vertex="1" parent="1">
          <mxGeometry x="520" y="20" width="120" height="60" as="geometry" />
        </mxCell>
        <mxCell id="xd_y7Sb4m2H2BHd6RDBn-4" value="" style="ellipse;whiteSpace=wrap;html=1;aspect=fixed;fillStyle=solid;fillColor=light-dark(#FFFFFF,#121212);" vertex="1" parent="1">
          <mxGeometry x="170" y="930" width="20" height="20" as="geometry" />
        </mxCell>
        <mxCell id="xd_y7Sb4m2H2BHd6RDBn-5" style="edgeStyle=orthogonalEdgeStyle;rounded=0;orthogonalLoop=1;jettySize=auto;html=1;exitX=0.5;exitY=1;exitDx=0;exitDy=0;entryX=0.5;entryY=0;entryDx=0;entryDy=0;" edge="1" parent="1" source="xd_y7Sb4m2H2BHd6RDBn-6" target="xd_y7Sb4m2H2BHd6RDBn-8">
          <mxGeometry relative="1" as="geometry" />
        </mxCell>
        <mxCell id="xd_y7Sb4m2H2BHd6RDBn-6" value="vista prestatarios" style="rounded=1;whiteSpace=wrap;html=1;" vertex="1" parent="1">
          <mxGeometry x="120" y="120" width="120" height="40" as="geometry" />
        </mxCell>
        <mxCell id="xd_y7Sb4m2H2BHd6RDBn-7" style="edgeStyle=orthogonalEdgeStyle;rounded=0;orthogonalLoop=1;jettySize=auto;html=1;exitX=0.5;exitY=1;exitDx=0;exitDy=0;entryX=0.5;entryY=0;entryDx=0;entryDy=0;" edge="1" parent="1" source="xd_y7Sb4m2H2BHd6RDBn-8" target="xd_y7Sb4m2H2BHd6RDBn-23">
          <mxGeometry relative="1" as="geometry" />
        </mxCell>
        <mxCell id="xd_y7Sb4m2H2BHd6RDBn-8" value="listar prestatarios por id" style="rounded=1;whiteSpace=wrap;html=1;" vertex="1" parent="1">
          <mxGeometry x="120" y="200" width="120" height="40" as="geometry" />
        </mxCell>
        <mxCell id="xd_y7Sb4m2H2BHd6RDBn-9" style="edgeStyle=orthogonalEdgeStyle;rounded=0;orthogonalLoop=1;jettySize=auto;html=1;exitX=1;exitY=0.5;exitDx=0;exitDy=0;entryX=0;entryY=0.5;entryDx=0;entryDy=0;" edge="1" parent="1" source="xd_y7Sb4m2H2BHd6RDBn-10" target="xd_y7Sb4m2H2BHd6RDBn-12">
          <mxGeometry relative="1" as="geometry" />
        </mxCell>
        <mxCell id="xd_y7Sb4m2H2BHd6RDBn-10" value="recuperar lista prestatarios" style="rounded=1;whiteSpace=wrap;html=1;" vertex="1" parent="1">
          <mxGeometry x="320" y="600" width="120" height="40" as="geometry" />
        </mxCell>
        <mxCell id="xd_y7Sb4m2H2BHd6RDBn-11" style="edgeStyle=orthogonalEdgeStyle;rounded=0;orthogonalLoop=1;jettySize=auto;html=1;exitX=0.5;exitY=1;exitDx=0;exitDy=0;entryX=1;entryY=0.5;entryDx=0;entryDy=0;" edge="1" parent="1" source="xd_y7Sb4m2H2BHd6RDBn-12" target="xd_y7Sb4m2H2BHd6RDBn-17">
          <mxGeometry relative="1" as="geometry" />
        </mxCell>
        <mxCell id="xd_y7Sb4m2H2BHd6RDBn-12" value="recuperar prestatarios que coincidan" style="rounded=1;whiteSpace=wrap;html=1;" vertex="1" parent="1">
          <mxGeometry x="520" y="600" width="120" height="40" as="geometry" />
        </mxCell>
        <mxCell id="xd_y7Sb4m2H2BHd6RDBn-13" style="edgeStyle=orthogonalEdgeStyle;rounded=0;orthogonalLoop=1;jettySize=auto;html=1;exitX=0;exitY=0.5;exitDx=0;exitDy=0;entryX=1;entryY=0.5;entryDx=0;entryDy=0;" edge="1" parent="1" source="xd_y7Sb4m2H2BHd6RDBn-15" target="xd_y7Sb4m2H2BHd6RDBn-19">
          <mxGeometry relative="1" as="geometry" />
        </mxCell>
        <mxCell id="xd_y7Sb4m2H2BHd6RDBn-14" style="edgeStyle=orthogonalEdgeStyle;rounded=0;orthogonalLoop=1;jettySize=auto;html=1;exitX=0.5;exitY=1;exitDx=0;exitDy=0;entryX=1;entryY=0.5;entryDx=0;entryDy=0;" edge="1" parent="1" source="xd_y7Sb4m2H2BHd6RDBn-15" target="xd_y7Sb4m2H2BHd6RDBn-21">
          <mxGeometry relative="1" as="geometry" />
        </mxCell>
        <mxCell id="xd_y7Sb4m2H2BHd6RDBn-15" value="" style="rhombus;whiteSpace=wrap;html=1;" vertex="1" parent="1">
          <mxGeometry x="360" y="760" width="40" height="40" as="geometry" />
        </mxCell>
        <mxCell id="xd_y7Sb4m2H2BHd6RDBn-16" style="edgeStyle=orthogonalEdgeStyle;rounded=0;orthogonalLoop=1;jettySize=auto;html=1;exitX=0.5;exitY=1;exitDx=0;exitDy=0;entryX=0.5;entryY=0;entryDx=0;entryDy=0;" edge="1" parent="1" source="xd_y7Sb4m2H2BHd6RDBn-17" target="xd_y7Sb4m2H2BHd6RDBn-15">
          <mxGeometry relative="1" as="geometry" />
        </mxCell>
        <mxCell id="xd_y7Sb4m2H2BHd6RDBn-17" value="comprobar lista" style="rounded=1;whiteSpace=wrap;html=1;" vertex="1" parent="1">
          <mxGeometry x="320" y="680" width="120" height="40" as="geometry" />
        </mxCell>
        <mxCell id="xd_y7Sb4m2H2BHd6RDBn-18" style="edgeStyle=orthogonalEdgeStyle;rounded=0;orthogonalLoop=1;jettySize=auto;html=1;exitX=0;exitY=0.5;exitDx=0;exitDy=0;entryX=0;entryY=0.5;entryDx=0;entryDy=0;" edge="1" parent="1" source="xd_y7Sb4m2H2BHd6RDBn-19" target="xd_y7Sb4m2H2BHd6RDBn-4">
          <mxGeometry relative="1" as="geometry" />
        </mxCell>
        <mxCell id="xd_y7Sb4m2H2BHd6RDBn-19" value="informar lista vacia" style="rounded=1;whiteSpace=wrap;html=1;" vertex="1" parent="1">
          <mxGeometry x="120" y="760" width="120" height="40" as="geometry" />
        </mxCell>
        <mxCell id="xd_y7Sb4m2H2BHd6RDBn-20" style="edgeStyle=orthogonalEdgeStyle;rounded=0;orthogonalLoop=1;jettySize=auto;html=1;exitX=0.5;exitY=1;exitDx=0;exitDy=0;entryX=0.5;entryY=0;entryDx=0;entryDy=0;" edge="1" parent="1" source="xd_y7Sb4m2H2BHd6RDBn-21" target="xd_y7Sb4m2H2BHd6RDBn-4">
          <mxGeometry relative="1" as="geometry" />
        </mxCell>
        <mxCell id="xd_y7Sb4m2H2BHd6RDBn-21" value="mostrar lista" style="rounded=1;whiteSpace=wrap;html=1;" vertex="1" parent="1">
          <mxGeometry x="120" y="840" width="120" height="40" as="geometry" />
        </mxCell>
        <mxCell id="xd_y7Sb4m2H2BHd6RDBn-22" style="edgeStyle=orthogonalEdgeStyle;rounded=0;orthogonalLoop=1;jettySize=auto;html=1;exitX=0.5;exitY=1;exitDx=0;exitDy=0;entryX=0.5;entryY=0;entryDx=0;entryDy=0;" edge="1" parent="1" source="xd_y7Sb4m2H2BHd6RDBn-23" target="xd_y7Sb4m2H2BHd6RDBn-25">
          <mxGeometry relative="1" as="geometry" />
        </mxCell>
        <mxCell id="xd_y7Sb4m2H2BHd6RDBn-23" value="mostrar formulario" style="rounded=1;whiteSpace=wrap;html=1;" vertex="1" parent="1">
          <mxGeometry x="120" y="280" width="120" height="40" as="geometry" />
        </mxCell>
        <mxCell id="xd_y7Sb4m2H2BHd6RDBn-24" style="edgeStyle=orthogonalEdgeStyle;rounded=0;orthogonalLoop=1;jettySize=auto;html=1;exitX=0.5;exitY=1;exitDx=0;exitDy=0;entryX=0.5;entryY=0;entryDx=0;entryDy=0;" edge="1" parent="1" source="xd_y7Sb4m2H2BHd6RDBn-25" target="xd_y7Sb4m2H2BHd6RDBn-27">
          <mxGeometry relative="1" as="geometry" />
        </mxCell>
        <mxCell id="xd_y7Sb4m2H2BHd6RDBn-25" value="completar formulario" style="rounded=1;whiteSpace=wrap;html=1;" vertex="1" parent="1">
          <mxGeometry x="120" y="360" width="120" height="40" as="geometry" />
        </mxCell>
        <mxCell id="xd_y7Sb4m2H2BHd6RDBn-26" style="edgeStyle=orthogonalEdgeStyle;rounded=0;orthogonalLoop=1;jettySize=auto;html=1;exitX=1;exitY=0.5;exitDx=0;exitDy=0;entryX=0;entryY=0.5;entryDx=0;entryDy=0;" edge="1" parent="1" source="xd_y7Sb4m2H2BHd6RDBn-27" target="xd_y7Sb4m2H2BHd6RDBn-29">
          <mxGeometry relative="1" as="geometry" />
        </mxCell>
        <mxCell id="xd_y7Sb4m2H2BHd6RDBn-27" value="confirmar formulario" style="rounded=1;whiteSpace=wrap;html=1;" vertex="1" parent="1">
          <mxGeometry x="120" y="440" width="120" height="40" as="geometry" />
        </mxCell>
        <mxCell id="xd_y7Sb4m2H2BHd6RDBn-28" style="edgeStyle=orthogonalEdgeStyle;rounded=0;orthogonalLoop=1;jettySize=auto;html=1;exitX=0.5;exitY=1;exitDx=0;exitDy=0;entryX=0.5;entryY=0;entryDx=0;entryDy=0;" edge="1" parent="1" source="xd_y7Sb4m2H2BHd6RDBn-29" target="xd_y7Sb4m2H2BHd6RDBn-34">
          <mxGeometry relative="1" as="geometry" />
        </mxCell>
        <mxCell id="xd_y7Sb4m2H2BHd6RDBn-29" value="validar datos&lt;span style=&quot;color: rgba(0, 0, 0, 0); font-family: monospace; font-size: 0px; text-align: start; text-wrap-mode: nowrap;&quot;&gt;%3CmxGraphModel%3E%3Croot%3E%3CmxCell%20id%3D%220%22%2F%3E%3CmxCell%20id%3D%221%22%20parent%3D%220%22%2F%3E%3CmxCell%20id%3D%222%22%20value%3D%22%22%20style%3D%22rounded%3D1%3BwhiteSpace%3Dwrap%3Bhtml%3D1%3B%22%20vertex%3D%221%22%20parent%3D%221%22%3E%3CmxGeometry%20x%3D%22120%22%20y%3D%22280%22%20width%3D%22120%22%20height%3D%2240%22%20as%3D%22geometry%22%2F%3E%3C%2FmxCell%3E%3C%2Froot%3E%3C%2FmxGraphModel%3E&lt;/span&gt;" style="rounded=1;whiteSpace=wrap;html=1;" vertex="1" parent="1">
          <mxGeometry x="320" y="440" width="120" height="40" as="geometry" />
        </mxCell>
        <mxCell id="xd_y7Sb4m2H2BHd6RDBn-30" style="edgeStyle=orthogonalEdgeStyle;rounded=0;orthogonalLoop=1;jettySize=auto;html=1;exitX=0;exitY=0.5;exitDx=0;exitDy=0;entryX=0;entryY=0.5;entryDx=0;entryDy=0;" edge="1" parent="1" source="xd_y7Sb4m2H2BHd6RDBn-31" target="xd_y7Sb4m2H2BHd6RDBn-23">
          <mxGeometry relative="1" as="geometry" />
        </mxCell>
        <mxCell id="xd_y7Sb4m2H2BHd6RDBn-31" value="informar error" style="rounded=1;whiteSpace=wrap;html=1;" vertex="1" parent="1">
          <mxGeometry x="120" y="520" width="120" height="40" as="geometry" />
        </mxCell>
        <mxCell id="xd_y7Sb4m2H2BHd6RDBn-32" style="edgeStyle=orthogonalEdgeStyle;rounded=0;orthogonalLoop=1;jettySize=auto;html=1;exitX=0;exitY=0.5;exitDx=0;exitDy=0;entryX=1;entryY=0.5;entryDx=0;entryDy=0;" edge="1" parent="1" source="xd_y7Sb4m2H2BHd6RDBn-34" target="xd_y7Sb4m2H2BHd6RDBn-31">
          <mxGeometry relative="1" as="geometry" />
        </mxCell>
        <mxCell id="xd_y7Sb4m2H2BHd6RDBn-33" style="edgeStyle=orthogonalEdgeStyle;rounded=0;orthogonalLoop=1;jettySize=auto;html=1;exitX=0.5;exitY=1;exitDx=0;exitDy=0;entryX=0.5;entryY=0;entryDx=0;entryDy=0;" edge="1" parent="1" source="xd_y7Sb4m2H2BHd6RDBn-34" target="xd_y7Sb4m2H2BHd6RDBn-10">
          <mxGeometry relative="1" as="geometry" />
        </mxCell>
        <mxCell id="xd_y7Sb4m2H2BHd6RDBn-34" value="" style="rhombus;whiteSpace=wrap;html=1;" vertex="1" parent="1">
          <mxGeometry x="360" y="520" width="40" height="40" as="geometry" />
        </mxCell>
      </root>
    </mxGraphModel>
  </diagram>
</mxfile>
